<?xml version="1.0" encoding="UTF-8"?>
<svg width="1900px" height="1900px" viewBox="0 0 1900 1900" version="1.1" xmlns="http://www.w3.org/2000/svg" xmlns:xlink="http://www.w3.org/1999/xlink">
    <title>Silhouette - male</title>
    <defs>
        <linearGradient x1="-0.0376583717%" y1="50.0062422%" x2="100.000833%" y2="50.0062422%" id="linearGradient-1">
            <stop stop-color="#16243F" offset="0%"></stop>
            <stop stop-color="#6878B1" offset="100%"></stop>
        </linearGradient>
        <linearGradient x1="37.3187982%" y1="2.89023483%" x2="59.0499753%" y2="87.4083519%" id="linearGradient-2">
            <stop stop-color="#16243F" offset="0%"></stop>
            <stop stop-color="#6878B1" offset="100%"></stop>
        </linearGradient>
    </defs>
    <g id="Silhouettes" stroke="none" stroke-width="1" fill="none" fill-rule="evenodd" opacity="0.7">
        <g id="Silhouette---male">
            <circle id="Oval" fill-opacity="0.5" fill="#0193B7" cx="950" cy="950" r="950"></circle>
            <g id="Artboards_Diversity_Avatars_by_Netguru-12" transform="translate(291.846397, 142.348565)">
                <path d="M1317.05681,1389.79937 C928.313009,1692.64836 386.085437,1690.22601 0,1383.91553 L282.974146,1249.70509 C296.450468,1243.29535 309.384485,1235.77805 321.646116,1227.22882 C325.367929,1224.63993 329.089743,1221.93336 332.637097,1219.10911 C363.434452,1195.26708 388.784629,1164.98221 406.957063,1130.32194 C420.695492,1103.6906 429.821945,1074.87426 433.940212,1045.1239 C436.780167,1025.82003 438.218466,1006.33157 438.24356,986.815028 C438.24356,953.159451 436.440806,919.503874 436.091886,885.789459 C435.859273,867.118067 435.665428,848.466287 435.510353,829.834121 L447.14102,835.717963 L477.380756,851.545498 L491.395711,853.957873 L653.527219,881.847285 L834.500409,913.031648 L839.966822,1101.3146 L841.769576,1162.85958 L842.641876,1192.7495 L842.641876,1194.69117 L913.007416,1223.63967 L1317.05681,1389.79937 Z" id="Path" fill="#DE8276" fill-rule="nonzero"></path>
                <path d="M840.240855,1183.39423 C820.302996,1186.87232 799.790264,1183.65048 781.82491,1174.21913 L435.679982,887.320777 C435.273913,874.028643 434.925854,887.967739 434.751824,874.675605 C434.519784,856.011724 434.326418,837.367449 434.171725,818.742778 L445.7737,824.624253 L475.938836,840.445421 L489.919216,842.856825 L651.650749,870.735017 L832.177483,901.906835 L837.630411,1090.11404 L839.428717,1151.63426 L840.298865,1181.51216 L840.298865,1183.45304 L840.240855,1183.39423 Z" id="Path" fill="#A76962" fill-rule="nonzero"></path>
                <path d="M1020.23814,671.039589 C1011.19958,680.618236 1001.29314,689.315457 990.649326,697.016664 C930.192816,741.372078 849.506627,755.921596 780.562953,779.836999 C751.497323,789.909742 436.309633,880.682242 436.309633,900.415395 C436.309633,896.115335 405.441935,865.072435 366.552122,827.373279 C232.418,697.195257 187.699981,498.567878 252.847378,322.322391 C316.268582,153.44195 518.449103,37.0458046 687.785463,10.1262507 C768.41352,-2.65611961 864.097573,-9.7836164 938.563717,29.3881635 C976.639692,49.4747453 1008.32123,78.7504966 1037.38686,111.207114 C1046.45533,121.456572 1055.25253,131.922015 1063.77845,142.603443 C1067.44072,147.080218 1071.04486,151.556993 1074.59086,156.092672 C1206.95574,324.560778 1160.04382,522.186826 1020.23814,671.039589 Z" id="Path" fill="url(#linearGradient-1)" fill-rule="nonzero"></path>
                <path d="M1020.37374,670.750956 C1011.34442,680.33328 1001.4481,689.03384 990.815162,696.738004 C988.335374,692.353595 986.105619,687.828375 984.136898,683.184668 C968.805927,647.828139 960.908154,609.466306 955.100968,571.222327 C946.057354,515.565859 939.874019,459.469556 936.576044,403.160961 C931.291505,312.766103 893.254437,267.922239 968.92207,197.444892 C996.153027,172.121222 1028.58124,153.243017 1063.86956,142.170852 C1067.52809,146.649345 1071.12854,151.127839 1074.67093,155.66526 C1206.90055,324.139119 1160.03656,521.841042 1020.37374,670.750956 Z" id="Path" fill="url(#linearGradient-2)" fill-rule="nonzero"></path>
                <ellipse id="Oval" fill="#E18477" fill-rule="nonzero" cx="378.082555" cy="664.976431" rx="98.6753921" ry="99.3179355"></ellipse>
                <ellipse id="Oval" fill="#A76962" fill-rule="nonzero" cx="409.762549" cy="664.472279" rx="88.8078529" ry="88.7307444"></ellipse>
                <path d="M417.656003,569.290307 C422.475303,633.188649 422.301112,711.208172 423.984964,734.037414 C428.359108,791.267421 432.694542,848.477816 436.991268,905.668597 L822.767537,1134.01986 C878.135737,1154.9914 940.165986,1129.90441 966.069137,1076.06418 C1021.57819,960.858878 1110.64814,778.931001 1098.91924,711.267011 C1081.50009,611.241981 1035.049,575.939029 1035.049,575.939029 L1054.38426,458.615554 C1073.95178,339.350415 1033.5974,226.439808 896.102189,213.377716 C867.07026,210.671157 834.728692,216.260791 817.483726,239.737254 C771.03264,303.047213 797.800078,380.94906 728.065386,439.787313 C643.408281,510.569731 454.526553,541.459813 410.281893,484.32787 C410.281893,484.32787 414.346363,524.74975 417.656003,569.290307 Z" id="Path" fill="#DE8276" fill-rule="nonzero"></path>
                <path d="M708.385446,819.751082 C736.111681,851.576557 774.120173,871.995087 815.370345,877.224405" id="Path" stroke="#00214E"></path>
                <path d="M844.738476,540.450898 C844.279925,542.511108 921.316556,753.123449 921.316556,753.123449 L818.48641,758.244543" id="Path" stroke="#00214E"></path>
                <path d="M598.284483,501.127045 C652.291487,490.723561 707.842704,489.25213 762.39724,496.780053" id="Path" stroke="#00214E"></path>
                <path d="M940.012946,501.127045 C973.349653,494.576947 1007.71464,492.567593 1041.8044,495.1752" id="Path" stroke="#00214E"></path>
                <path d="M1317.05681,1388.37425 C928.313009,1690.42888 386.085437,1688.01288 0,1382.50584 L282.974146,1248.64744 C296.450468,1242.2545 309.384485,1234.75693 321.646116,1226.23011 C325.367929,1223.64801 329.089743,1220.94854 332.637097,1218.13171 C363.434452,1194.35221 388.784629,1164.14678 406.957063,1129.57742 C420.695492,1103.01594 429.821945,1074.27517 433.940212,1044.60285 C438.047158,1048.61875 442.356205,1052.41868 446.850254,1055.98757 C482.507113,1082.59549 521.204775,1104.78079 562.110171,1122.06585 C581.969357,1130.42544 602.277353,1137.65493 622.938563,1143.72028 C685.185921,1162.03688 750.177519,1168.97297 814.84458,1164.20103 C823.800194,1163.49682 832.813962,1162.61656 841.769576,1161.97103 L842.641876,1191.78255 L842.641876,1193.71913 L913.007416,1222.5917 L1317.05681,1388.37425 Z" id="Path" fill="#00214E" fill-rule="nonzero"></path>
                <path d="M677.008804,567.675103 C711.919738,567.675103 711.919738,622.837774 677.008804,623.131818 L675.406335,623.131818 C640.43817,623.131818 640.43817,567.969147 675.406335,567.675103 L676.951573,567.675103 L677.008804,567.675103 Z" id="Path" fill="#00214E" fill-rule="nonzero"></path>
                <path d="M968.294352,558.600368 C1001.21662,558.894217 1001.21662,609.730019 968.294352,610.023868 L966.782021,610.023868 C933.859756,610.023868 933.859756,558.894217 966.782021,558.600368 L968.294352,558.600368 Z" id="Path" fill="#00214E" fill-rule="nonzero"></path>
            </g>
        </g>
    </g>
</svg>