<?xml version="1.0" encoding="UTF-8"?>
<svg width="1900px" height="1900px" viewBox="0 0 1900 1900" version="1.1" xmlns="http://www.w3.org/2000/svg" xmlns:xlink="http://www.w3.org/1999/xlink">
    <title>Silhouette - female</title>
    <defs>
        <linearGradient x1="36.6709654%" y1="74.5246578%" x2="63.5869565%" y2="37.3460919%" id="linearGradient-1">
            <stop stop-color="#00214E" offset="29%"></stop>
            <stop stop-color="#6878B1" offset="51%"></stop>
            <stop stop-color="#00214E" offset="79%"></stop>
        </linearGradient>
    </defs>
    <g id="Silhouettes" stroke="none" stroke-width="1" fill="none" fill-rule="evenodd" opacity="0.704148065">
        <g id="Silhouette---female">
            <circle id="Oval" fill="#DC898A" cx="950" cy="950" r="950"></circle>
            <g id="Artboards_Diversity_Avatars_by_Netguru-03" transform="translate(291.846397, 142.348565)">
                <path d="M1016.17057,365.2729 C991.513572,248.262056 981.278593,159.035413 881.31309,84.4938662 C801.468625,25.0485981 699.467756,-6.72994939 600.200093,1.20000239 C515.994131,7.9551465 410.329605,38.206444 327.635629,89.3105777 C291.445426,110.886789 259.491878,139.001477 233.369148,172.251999 C196.674422,221.123998 170.389136,280.569266 150.384405,343.656438 C120.261001,438.522158 103.861774,541.729012 87.6370061,629.780847 C59.432661,779.627565 34.1941338,930.002947 8.89745317,1080.37833 C183.0084,1098.00044 1091.9443,1092.77255 1091.9443,1092.77255 C1091.9443,1092.77255 1071.12542,625.434058 1016.17057,365.2729 Z M584.847624,485.338243 L487.150099,453.442215 L781.75466,341.835487 L803.32953,353.936006 L584.847624,485.338243 Z" id="Shape" fill="#00214E" fill-rule="nonzero"></path>
                <path d="M1317.05568,1390.17511 C928.312213,1692.51949 386.085106,1690.10117 8.26407937e-14,1384.30107 L282.973903,1250.31426 C291.635577,1246.17706 300.079131,1241.58916 308.270583,1236.56901 L314.783752,1232.45718 C317.109883,1230.98867 319.377862,1229.46142 321.64584,1227.87543 C357.34645,1202.99753 386.604996,1169.81736 406.956714,1131.13002 C430.21803,1086.78103 437.894264,1037.79155 438.243184,987.862225 C438.243184,954.262725 436.440432,920.663226 436.091512,887.004986 C435.858899,868.403865 435.665054,849.783163 435.509979,831.142881 L447.140637,837.01692 L477.380347,852.818083 L653.410352,883.01064 L834.383386,914.143043 L839.849795,1102.11227 L842.583,1195.33326 L909.284822,1222.76502 L961.622782,1244.14652 L1317.05568,1390.17511 Z" id="Path" fill="#F2D4CF" fill-rule="nonzero"></path>
                <path d="M838.744883,1080.37833 C822.927188,1090.24671 807.981793,1094.8872 794.897303,1093.47743 C708.888589,1084.13771 541.116351,1016.05761 435.509979,890.059486 C435.509979,883.911326 435.393672,877.743586 435.161059,871.556265 C434.928446,852.915984 434.734602,834.295282 434.579526,815.69416 L446.210184,821.568199 L476.449894,837.369362 L652.596206,867.62066 L833.56924,898.753063 L838.744883,1080.37833 Z" id="Path" fill="#DAAEA8" fill-rule="nonzero"></path>
                <path d="M1317.05568,1390.17511 C928.312213,1692.51949 386.085106,1690.10117 8.26407937e-14,1384.30107 L282.973903,1250.31426 C291.696896,1246.16327 300.129123,1241.6011 308.270583,1236.62775 C445.977571,1338.89476 637.650811,1405.44761 802.922457,1330.31866 C849.794008,1309.05464 892.071449,1271.28458 909.284822,1222.76502 L961.622782,1244.14652 L1317.05568,1390.17511 Z" id="Path" fill="#FF2609" fill-rule="nonzero"></path>
                <ellipse id="Oval" fill="#F2D4CF" fill-rule="nonzero" cx="280.357005" cy="635.654885" rx="98.8605908" ry="99.858652"></ellipse>
                <ellipse id="Oval" fill="#DAAEA8" fill-rule="nonzero" cx="315.248978" cy="623.906808" rx="98.8605908" ry="99.858652"></ellipse>
                <path d="M952.260102,484.398397 C1020.53206,723.413018 875.497761,1012.35696 786.290616,1012.35696 C664.16871,1012.35696 367.586938,913.790601 299.37313,674.77598 C231.159323,435.76136 321.878453,199.448797 502.153648,146.876154 C682.428843,94.3035103 883.929988,245.442517 952.260102,484.398397 Z" id="Path" fill="#F2D4CF" fill-rule="nonzero"></path>
                <path d="M773.43874,460.843504 C814.530088,439.70288 862.067308,435.226884 906.319004,448.331802" id="Path" stroke="#00214E"></path>
                <path d="M489.185465,474.295051 C545.845718,445.153022 612.408262,443.000139 670.798185,468.421013" id="Path" stroke="#00214E"></path>
                <ellipse id="Oval" fill="#00214E" fill-rule="nonzero" transform="translate(566.056980, 550.725435) rotate(-85.770000) translate(-566.056980, -550.725435) " cx="566.05698" cy="550.725435" rx="19.2070922" ry="46.1762496"></ellipse>
                <ellipse id="Oval" fill="#00214E" fill-rule="nonzero" transform="translate(865.499242, 541.228804) rotate(-13.230000) translate(-865.499242, -541.228804) " cx="865.499242" cy="541.228804" rx="46.1981473" ry="19.198337"></ellipse>
                <path d="M778.091003,603.935078 C778.091003,603.935078 779.777448,637.123395 787.511836,652.689596 C790.826573,659.386 795.944062,665.083817 799.142493,671.72148 C811.99437,697.214807 791.175493,702.560182 771.170761,702.560182" id="Path" stroke="#00214E"></path>
                <path d="M697.141625,661.970577 C688.461373,666.45836 684.316379,676.668317 687.378212,686.019838 C690.440045,695.371358 699.794334,701.071748 709.411969,699.446941" id="Path" stroke="#00214E"></path>
                <path d="M592.582012,753.076912 C594.200981,750.505248 596.804902,748.728562 599.77121,748.171638 C602.737518,747.614713 605.799562,748.327613 608.225246,750.139892 C620.262977,758.715988 642.361227,776.925507 673.764003,783.210728 C716.564823,791.845565 753.724775,774.517152 762.564075,785.677825 C767.565258,791.963046 761.459162,799.658036 749.770351,809.173978 C725.086405,827.988926 693.915218,835.913367 663.354564,831.142881 C622.123882,823.33041 591.244353,775.163296 591.244353,758.128585 C591.235354,756.354212 591.697221,754.609798 592.582012,753.076912 Z" id="Path" fill="#FFFFFF" fill-rule="nonzero"></path>
                <polygon id="Path" fill="#00214E" fill-rule="nonzero" points="910.506041 293.31593 781.75466 342.011708 487.150099 453.442215 487.091946 453.442215 267.098055 536.677339 263.725164 380.60414 259.189208 169.961124 395.791283 126.963164 613.924269 58.3543956"></polygon>
                <path d="M781.75466,342.011708 L487.150099,453.618436 L487.150099,453.618436 L263.783318,380.780361 L150.442558,343.83266 C170.447289,280.745488 196.965189,221.300219 233.427301,172.42822 C259.5659,139.240945 291.518459,111.18686 327.693782,89.66302 C348.047433,100.764952 371.134288,113.159173 395.849436,127.139385 C532.218898,202.268335 719.007261,306.826218 781.75466,342.011708 Z" id="Path" fill="url(#linearGradient-1)" fill-rule="nonzero"></path>
            </g>
        </g>
    </g>
</svg>